<svg xmlns="http://www.w3.org/2000/svg" width="3568" height="1178" viewBox="0 0 3568 1178"><g id="S9 Staff accounts"><rect id="background" x="0" y="0" width="3568" height="1178" fill="#FFFFFF"/><text id="title" x="64" y="98" font-family="Inter" font-size="36" font-weight="700" fill="#1F1F1F" text-anchor="start">S9  Staff accounts</text><text id="text-Route-staffadminaccou" font-family="Inter" font-size="17" font-weight="400" fill="#5C5C5C" text-anchor="start"><tspan x="64" y="135.8">Route /staff/admin/accounts. Who can sign in to the staff portal.</tspan></text><text id="meta" x="3504" y="94" font-family="Inter" font-size="13" font-weight="400" fill="#8F8F8F" text-anchor="end">Lumina Specialized Hospital · UI wireframes v0.1 · October 2026</text><text id="caption-a-List" x="64" y="194" font-family="Inter" font-size="16" font-weight="600" fill="#5C5C5C" text-anchor="start">a. List</text><g id="desktop-screen"><rect x="64" y="214" width="1440" height="900" fill="#F6F6F6" stroke="#9A9A9A" stroke-width="1.5"/><g id="sidebar"><rect x="64" y="278" width="240" height="836" fill="#FFFFFF"/><line x1="304" y1="278" x2="304" y2="1114" stroke="#E0E0E0" stroke-width="1"/><svg id="icon-ListOrdered" x="88" y="301" width="18" height="18" viewBox="0 0 24 24" fill="none" stroke="#5C5C5C" stroke-width="2" stroke-linecap="round" stroke-linejoin="round"><path d="M11 5h10"></path><path d="M11 12h10"></path><path d="M11 19h10"></path><path d="M4 4h1v5"></path><path d="M4 9h2"></path><path d="M6.5 20H3.4c0-1 2.6-1.925 2.6-3.5a1.5 1.5 0 0 0-2.6-1.02"></path></svg><text id="text-Front-desk" x="116" y="315" font-family="Inter" font-size="15" font-weight="500" fill="#5C5C5C" text-anchor="start">Front desk</text><svg id="icon-ChartColumn" x="88" y="341" width="18" height="18" viewBox="0 0 24 24" fill="none" stroke="#5C5C5C" stroke-width="2" stroke-linecap="round" stroke-linejoin="round"><path d="M3 3v16a2 2 0 0 0 2 2h16"></path><path d="M18 17V9"></path><path d="M13 17V5"></path><path d="M8 17v-3"></path></svg><text id="text-Analytics" x="116" y="355" font-family="Inter" font-size="15" font-weight="500" fill="#5C5C5C" text-anchor="start">Analytics</text><svg id="icon-Stethoscope" x="88" y="381" width="18" height="18" viewBox="0 0 24 24" fill="none" stroke="#5C5C5C" stroke-width="2" stroke-linecap="round" stroke-linejoin="round"><path d="M11 2v2"></path><path d="M5 2v2"></path><path d="M5 3H4a2 2 0 0 0-2 2v4a6 6 0 0 0 12 0V5a2 2 0 0 0-2-2h-1"></path><path d="M8 15a6 6 0 0 0 12 0v-3"></path><circle cx="20" cy="10" r="2"></circle></svg><text id="text-Doctors" x="116" y="395" font-family="Inter" font-size="15" font-weight="500" fill="#5C5C5C" text-anchor="start">Doctors</text><svg id="icon-CalendarX" x="88" y="421" width="18" height="18" viewBox="0 0 24 24" fill="none" stroke="#5C5C5C" stroke-width="2" stroke-linecap="round" stroke-linejoin="round"><path d="M8 2v3"></path><path d="M16 2v3"></path><rect x="3" y="3" width="18" height="18" rx="2"></rect><path d="M3 9h18"></path><path d="m14 13-4 4"></path><path d="m10 13 4 4"></path></svg><text id="text-Leave-days" x="116" y="435" font-family="Inter" font-size="15" font-weight="500" fill="#5C5C5C" text-anchor="start">Leave days</text><svg id="icon-ClipboardList" x="88" y="461" width="18" height="18" viewBox="0 0 24 24" fill="none" stroke="#5C5C5C" stroke-width="2" stroke-linecap="round" stroke-linejoin="round"><rect width="8" height="4" x="8" y="2" rx="1" ry="1"></rect><path d="M16 4h2a2 2 0 0 1 2 2v14a2 2 0 0 1-2 2H6a2 2 0 0 1-2-2V6a2 2 0 0 1 2-2h2"></path><path d="M12 11h4"></path><path d="M12 16h4"></path><path d="M8 11h.01"></path><path d="M8 16h.01"></path></svg><text id="text-Specialties" x="116" y="475" font-family="Inter" font-size="15" font-weight="500" fill="#5C5C5C" text-anchor="start">Specialties</text><svg id="icon-Settings" x="88" y="501" width="18" height="18" viewBox="0 0 24 24" fill="none" stroke="#5C5C5C" stroke-width="2" stroke-linecap="round" stroke-linejoin="round"><path d="M9.671 4.136a2.34 2.34 0 0 1 4.659 0 2.34 2.34 0 0 0 3.319 1.915 2.34 2.34 0 0 1 2.33 4.033 2.34 2.34 0 0 0 0 3.831 2.34 2.34 0 0 1-2.33 4.033 2.34 2.34 0 0 0-3.319 1.915 2.34 2.34 0 0 1-4.659 0 2.34 2.34 0 0 0-3.32-1.915 2.34 2.34 0 0 1-2.33-4.033 2.34 2.34 0 0 0 0-3.831A2.34 2.34 0 0 1 6.35 6.051a2.34 2.34 0 0 0 3.319-1.915"></path><circle cx="12" cy="12" r="3"></circle></svg><text id="text-Settings" x="116" y="515" font-family="Inter" font-size="15" font-weight="500" fill="#5C5C5C" text-anchor="start">Settings</text><svg id="icon-MessageSquare" x="88" y="541" width="18" height="18" viewBox="0 0 24 24" fill="none" stroke="#5C5C5C" stroke-width="2" stroke-linecap="round" stroke-linejoin="round"><path d="M22 17a2 2 0 0 1-2 2H6.828a2 2 0 0 0-1.414.586l-2.202 2.202A.71.71 0 0 1 2 21.286V5a2 2 0 0 1 2-2h16a2 2 0 0 1 2 2z"></path></svg><text id="text-SMS-log" x="116" y="555" font-family="Inter" font-size="15" font-weight="500" fill="#5C5C5C" text-anchor="start">SMS log</text><rect x="76" y="570" width="216" height="40" rx="8" fill="#E2E2E2"/><svg id="icon-Users" x="88" y="581" width="18" height="18" viewBox="0 0 24 24" fill="none" stroke="#1F1F1F" stroke-width="2" stroke-linecap="round" stroke-linejoin="round"><path d="M16 21v-2a4 4 0 0 0-4-4H6a4 4 0 0 0-4 4v2"></path><path d="M16 3.128a4 4 0 0 1 0 7.744"></path><path d="M22 21v-2a4 4 0 0 0-3-3.87"></path><circle cx="9" cy="7" r="4"></circle></svg><text id="text-Staff-accounts-3" x="116" y="595" font-family="Inter" font-size="15" font-weight="600" fill="#1F1F1F" text-anchor="start">Staff accounts</text><text id="text-Patient-site" x="88" y="651" font-family="Inter" font-size="15" font-weight="500" fill="#5C5C5C" text-anchor="start">Patient site</text></g><text id="text-Staff-accounts-2" font-family="Inter" font-size="28" font-weight="700" fill="#1F1F1F" text-anchor="start"><tspan x="336" y="340.4">Staff accounts</tspan></text><g id="button-Add-account-2"><rect x="1081.5" y="310" width="154.5" height="44" rx="10" fill="#3B3B3B"/><svg id="icon-Plus-2" x="1097.5" y="322" width="20" height="20" viewBox="0 0 24 24" fill="none" stroke="#FFFFFF" stroke-width="2" stroke-linecap="round" stroke-linejoin="round"><path d="M5 12h14"></path><path d="M12 5v14"></path></svg><text id="label-Add-account-2" x="1123.5" y="337.3" font-family="Inter" font-size="15" font-weight="600" fill="#FFFFFF">Add account</text></g><g id="table"><rect x="336" y="378" width="900" height="340" rx="12" fill="#FFFFFF" stroke="#C4C4C4" stroke-width="1"/><rect x="336" y="378" width="900" height="40" fill="#EFEFEF"/><text id="text-NAME" x="352" y="403" font-family="Inter" font-size="11" font-weight="600" fill="#5C5C5C" text-anchor="start">NAME</text><text id="text-USERNAME" x="608" y="403" font-family="Inter" font-size="11" font-weight="600" fill="#5C5C5C" text-anchor="start">USERNAME</text><text id="text-ROLE" x="824" y="403" font-family="Inter" font-size="11" font-weight="600" fill="#5C5C5C" text-anchor="start">ROLE</text><text id="text-DOCTOR" x="980" y="403" font-family="Inter" font-size="11" font-weight="600" fill="#5C5C5C" text-anchor="start">DOCTOR</text><line x1="336" y1="418" x2="1236" y2="418" stroke="#E0E0E0" stroke-width="1"/><text id="text-Hospital-Admin-2" font-family="Inter" font-size="14" font-weight="600" fill="#1F1F1F" text-anchor="start"><tspan x="352" y="446.3">Hospital Admin</tspan></text><text id="text-admin-2" font-family="Inter" font-size="14" font-weight="400" fill="#5C5C5C" text-anchor="start"><tspan x="608" y="446.3">admin</tspan></text><g id="chip-Admin-4"><rect x="824" y="432" width="55.1" height="22" rx="11" fill="#E2E2E2"/><text id="chip-Admin-3" x="833" y="447" font-family="Inter" font-size="12" font-weight="500" fill="#1F1F1F">Admin</text></g><text id="text-2" font-family="Inter" font-size="14" font-weight="400" fill="#5C5C5C" text-anchor="start"><tspan x="980" y="446.3"></tspan></text><line x1="336" y1="468" x2="1236" y2="468" stroke="#E0E0E0" stroke-width="1"/><text id="text-Front-Desk-2" font-family="Inter" font-size="14" font-weight="600" fill="#1F1F1F" text-anchor="start"><tspan x="352" y="496.3">Front Desk</tspan></text><text id="text-frontdesk-2" font-family="Inter" font-size="14" font-weight="400" fill="#5C5C5C" text-anchor="start"><tspan x="608" y="496.3">frontdesk</tspan></text><g id="chip-Front-desk-4"><rect x="824" y="482" width="81.6" height="22" rx="11" fill="#E2E2E2"/><text id="chip-Front-desk-3" x="833" y="497" font-family="Inter" font-size="12" font-weight="500" fill="#1F1F1F">Front desk</text></g><text id="text-4" font-family="Inter" font-size="14" font-weight="400" fill="#5C5C5C" text-anchor="start"><tspan x="980" y="496.3"></tspan></text><line x1="336" y1="518" x2="1236" y2="518" stroke="#E0E0E0" stroke-width="1"/><text id="text-Dr-Mahmudul-Hasan-3" font-family="Inter" font-size="14" font-weight="600" fill="#1F1F1F" text-anchor="start"><tspan x="352" y="546.4">Dr. Mahmudul Hasan</tspan></text><text id="text-drmahmudul-2" font-family="Inter" font-size="14" font-weight="400" fill="#5C5C5C" text-anchor="start"><tspan x="608" y="546.4">dr.mahmudul</tspan></text><g id="chip-Doctor-4"><rect x="824" y="532" width="57.1" height="22" rx="11" fill="#E2E2E2"/><text id="chip-Doctor-3" x="833" y="547" font-family="Inter" font-size="12" font-weight="500" fill="#1F1F1F">Doctor</text></g><text id="text-Dr-Mahmudul-Hasan-4" font-family="Inter" font-size="14" font-weight="400" fill="#5C5C5C" text-anchor="start"><tspan x="980" y="546.4">Dr. Mahmudul Hasan</tspan></text><line x1="336" y1="568" x2="1236" y2="568" stroke="#E0E0E0" stroke-width="1"/><text id="text-Dr-Sharmin-Akter-3" font-family="Inter" font-size="14" font-weight="600" fill="#1F1F1F" text-anchor="start"><tspan x="352" y="596.4">Dr. Sharmin Akter</tspan></text><text id="text-drsharmin-2" font-family="Inter" font-size="14" font-weight="400" fill="#5C5C5C" text-anchor="start"><tspan x="608" y="596.4">dr.sharmin</tspan></text><g id="chip-Doctor-8"><rect x="824" y="582" width="57.1" height="22" rx="11" fill="#E2E2E2"/><text id="chip-Doctor-7" x="833" y="597" font-family="Inter" font-size="12" font-weight="500" fill="#1F1F1F">Doctor</text></g><text id="text-Dr-Sharmin-Akter-4" font-family="Inter" font-size="14" font-weight="400" fill="#5C5C5C" text-anchor="start"><tspan x="980" y="596.4">Dr. Sharmin Akter</tspan></text><line x1="336" y1="618" x2="1236" y2="618" stroke="#E0E0E0" stroke-width="1"/><text id="text-Dr-Tanvir-Hasan-3" font-family="Inter" font-size="14" font-weight="600" fill="#1F1F1F" text-anchor="start"><tspan x="352" y="646.4">Dr. Tanvir Hasan</tspan></text><text id="text-drtanvir-2" font-family="Inter" font-size="14" font-weight="400" fill="#5C5C5C" text-anchor="start"><tspan x="608" y="646.4">dr.tanvir</tspan></text><g id="chip-Doctor-12"><rect x="824" y="632" width="57.1" height="22" rx="11" fill="#E2E2E2"/><text id="chip-Doctor-11" x="833" y="647" font-family="Inter" font-size="12" font-weight="500" fill="#1F1F1F">Doctor</text></g><text id="text-Dr-Tanvir-Hasan-4" font-family="Inter" font-size="14" font-weight="400" fill="#5C5C5C" text-anchor="start"><tspan x="980" y="646.4">Dr. Tanvir Hasan</tspan></text><line x1="336" y1="668" x2="1236" y2="668" stroke="#E0E0E0" stroke-width="1"/><text id="text-Dr-Rezaul-Karim-3" font-family="Inter" font-size="14" font-weight="600" fill="#1F1F1F" text-anchor="start"><tspan x="352" y="696.4">Dr. Rezaul Karim</tspan></text><text id="text-drrezaul-2" font-family="Inter" font-size="14" font-weight="400" fill="#5C5C5C" text-anchor="start"><tspan x="608" y="696.4">dr.rezaul</tspan></text><g id="chip-Doctor-16"><rect x="824" y="682" width="57.1" height="22" rx="11" fill="#E2E2E2"/><text id="chip-Doctor-15" x="833" y="697" font-family="Inter" font-size="12" font-weight="500" fill="#1F1F1F">Doctor</text></g><text id="text-Dr-Rezaul-Karim-4" font-family="Inter" font-size="14" font-weight="400" fill="#5C5C5C" text-anchor="start"><tspan x="980" y="696.4">Dr. Rezaul Karim</tspan></text></g><g id="top-bar"><rect x="64" y="214" width="1440" height="64" fill="#FFFFFF"/><line x1="64" y1="278" x2="1504" y2="278" stroke="#E0E0E0" stroke-width="1"/><rect x="80" y="228" width="36" height="36" rx="8" fill="#3B3B3B"/><svg id="icon-Plus-3" x="88" y="236" width="20" height="20" viewBox="0 0 24 24" fill="none" stroke="#FFFFFF" stroke-width="3" stroke-linecap="round" stroke-linejoin="round"><path d="M5 12h14"></path><path d="M12 5v14"></path></svg><text id="text-Lumina-Specialized-Hospi" x="128" y="244" font-family="Inter" font-size="16" font-weight="600" fill="#1F1F1F" text-anchor="start">Lumina Specialized Hospital</text><text id="text-Staff-portal" x="128" y="262" font-family="Inter" font-size="12" font-weight="400" fill="#5C5C5C" text-anchor="start">Staff portal</text><text id="text-Sign-out" x="1423.6" y="251" font-family="Inter" font-size="14" font-weight="500" fill="#5C5C5C" text-anchor="start">Sign out</text><svg id="icon-LogOut" x="1399.6" y="237" width="18" height="18" viewBox="0 0 24 24" fill="none" stroke="#5C5C5C" stroke-width="2" stroke-linecap="round" stroke-linejoin="round"><path d="m16 17 5-5-5-5"></path><path d="M21 12H9"></path><path d="M9 21H5a2 2 0 0 1-2-2V5a2 2 0 0 1 2-2h4"></path></svg><text id="text-5" x="1338.4" y="251" font-family="Hind Siliguri" font-size="14" font-weight="500" fill="#5C5C5C" text-anchor="start">বাংলা</text><svg id="icon-Languages" x="1314.4" y="237" width="18" height="18" viewBox="0 0 24 24" fill="none" stroke="#5C5C5C" stroke-width="2" stroke-linecap="round" stroke-linejoin="round"><path d="m5 8 6 6"></path><path d="m4 14 6-6 2-3"></path><path d="M2 5h12"></path><path d="M7 2h1"></path><path d="m22 22-5-10-5 10"></path><path d="M14 18h6"></path></svg><g id="chip-Admin-6"><rect x="1235.3" y="235" width="55.1" height="22" rx="11" fill="#E2E2E2"/><text id="chip-Admin-5" x="1244.3" y="250" font-family="Inter" font-size="12" font-weight="500" fill="#1F1F1F">Admin</text></g><text id="text-Hospital-Admin-3" x="1123.7" y="251" font-family="Inter" font-size="14" font-weight="500" fill="#1F1F1F" text-anchor="start">Hospital Admin</text></g></g><text id="caption-b-Add-account" x="1584" y="194" font-family="Inter" font-size="16" font-weight="600" fill="#5C5C5C" text-anchor="start">b. Add account</text><g id="desktop-screen-2"><rect x="1584" y="214" width="1440" height="900" fill="#F6F6F6" stroke="#9A9A9A" stroke-width="1.5"/><g id="sidebar-2"><rect x="1584" y="278" width="240" height="836" fill="#FFFFFF"/><line x1="1824" y1="278" x2="1824" y2="1114" stroke="#E0E0E0" stroke-width="1"/><svg id="icon-ListOrdered-2" x="1608" y="301" width="18" height="18" viewBox="0 0 24 24" fill="none" stroke="#5C5C5C" stroke-width="2" stroke-linecap="round" stroke-linejoin="round"><path d="M11 5h10"></path><path d="M11 12h10"></path><path d="M11 19h10"></path><path d="M4 4h1v5"></path><path d="M4 9h2"></path><path d="M6.5 20H3.4c0-1 2.6-1.925 2.6-3.5a1.5 1.5 0 0 0-2.6-1.02"></path></svg><text id="text-Front-desk-2" x="1636" y="315" font-family="Inter" font-size="15" font-weight="500" fill="#5C5C5C" text-anchor="start">Front desk</text><svg id="icon-ChartColumn-2" x="1608" y="341" width="18" height="18" viewBox="0 0 24 24" fill="none" stroke="#5C5C5C" stroke-width="2" stroke-linecap="round" stroke-linejoin="round"><path d="M3 3v16a2 2 0 0 0 2 2h16"></path><path d="M18 17V9"></path><path d="M13 17V5"></path><path d="M8 17v-3"></path></svg><text id="text-Analytics-2" x="1636" y="355" font-family="Inter" font-size="15" font-weight="500" fill="#5C5C5C" text-anchor="start">Analytics</text><svg id="icon-Stethoscope-2" x="1608" y="381" width="18" height="18" viewBox="0 0 24 24" fill="none" stroke="#5C5C5C" stroke-width="2" stroke-linecap="round" stroke-linejoin="round"><path d="M11 2v2"></path><path d="M5 2v2"></path><path d="M5 3H4a2 2 0 0 0-2 2v4a6 6 0 0 0 12 0V5a2 2 0 0 0-2-2h-1"></path><path d="M8 15a6 6 0 0 0 12 0v-3"></path><circle cx="20" cy="10" r="2"></circle></svg><text id="text-Doctors-2" x="1636" y="395" font-family="Inter" font-size="15" font-weight="500" fill="#5C5C5C" text-anchor="start">Doctors</text><svg id="icon-CalendarX-2" x="1608" y="421" width="18" height="18" viewBox="0 0 24 24" fill="none" stroke="#5C5C5C" stroke-width="2" stroke-linecap="round" stroke-linejoin="round"><path d="M8 2v3"></path><path d="M16 2v3"></path><rect x="3" y="3" width="18" height="18" rx="2"></rect><path d="M3 9h18"></path><path d="m14 13-4 4"></path><path d="m10 13 4 4"></path></svg><text id="text-Leave-days-2" x="1636" y="435" font-family="Inter" font-size="15" font-weight="500" fill="#5C5C5C" text-anchor="start">Leave days</text><svg id="icon-ClipboardList-2" x="1608" y="461" width="18" height="18" viewBox="0 0 24 24" fill="none" stroke="#5C5C5C" stroke-width="2" stroke-linecap="round" stroke-linejoin="round"><rect width="8" height="4" x="8" y="2" rx="1" ry="1"></rect><path d="M16 4h2a2 2 0 0 1 2 2v14a2 2 0 0 1-2 2H6a2 2 0 0 1-2-2V6a2 2 0 0 1 2-2h2"></path><path d="M12 11h4"></path><path d="M12 16h4"></path><path d="M8 11h.01"></path><path d="M8 16h.01"></path></svg><text id="text-Specialties-2" x="1636" y="475" font-family="Inter" font-size="15" font-weight="500" fill="#5C5C5C" text-anchor="start">Specialties</text><svg id="icon-Settings-2" x="1608" y="501" width="18" height="18" viewBox="0 0 24 24" fill="none" stroke="#5C5C5C" stroke-width="2" stroke-linecap="round" stroke-linejoin="round"><path d="M9.671 4.136a2.34 2.34 0 0 1 4.659 0 2.34 2.34 0 0 0 3.319 1.915 2.34 2.34 0 0 1 2.33 4.033 2.34 2.34 0 0 0 0 3.831 2.34 2.34 0 0 1-2.33 4.033 2.34 2.34 0 0 0-3.319 1.915 2.34 2.34 0 0 1-4.659 0 2.34 2.34 0 0 0-3.32-1.915 2.34 2.34 0 0 1-2.33-4.033 2.34 2.34 0 0 0 0-3.831A2.34 2.34 0 0 1 6.35 6.051a2.34 2.34 0 0 0 3.319-1.915"></path><circle cx="12" cy="12" r="3"></circle></svg><text id="text-Settings-2" x="1636" y="515" font-family="Inter" font-size="15" font-weight="500" fill="#5C5C5C" text-anchor="start">Settings</text><svg id="icon-MessageSquare-2" x="1608" y="541" width="18" height="18" viewBox="0 0 24 24" fill="none" stroke="#5C5C5C" stroke-width="2" stroke-linecap="round" stroke-linejoin="round"><path d="M22 17a2 2 0 0 1-2 2H6.828a2 2 0 0 0-1.414.586l-2.202 2.202A.71.71 0 0 1 2 21.286V5a2 2 0 0 1 2-2h16a2 2 0 0 1 2 2z"></path></svg><text id="text-SMS-log-2" x="1636" y="555" font-family="Inter" font-size="15" font-weight="500" fill="#5C5C5C" text-anchor="start">SMS log</text><rect x="1596" y="570" width="216" height="40" rx="8" fill="#E2E2E2"/><svg id="icon-Users-2" x="1608" y="581" width="18" height="18" viewBox="0 0 24 24" fill="none" stroke="#1F1F1F" stroke-width="2" stroke-linecap="round" stroke-linejoin="round"><path d="M16 21v-2a4 4 0 0 0-4-4H6a4 4 0 0 0-4 4v2"></path><path d="M16 3.128a4 4 0 0 1 0 7.744"></path><path d="M22 21v-2a4 4 0 0 0-3-3.87"></path><circle cx="9" cy="7" r="4"></circle></svg><text id="text-Staff-accounts-6" x="1636" y="595" font-family="Inter" font-size="15" font-weight="600" fill="#1F1F1F" text-anchor="start">Staff accounts</text><text id="text-Patient-site-2" x="1608" y="651" font-family="Inter" font-size="15" font-weight="500" fill="#5C5C5C" text-anchor="start">Patient site</text></g><text id="text-Staff-accounts-5" font-family="Inter" font-size="28" font-weight="700" fill="#1F1F1F" text-anchor="start"><tspan x="1856" y="340.4">Staff accounts</tspan></text><g id="button-Add-account-4"><rect x="2601.5" y="310" width="154.5" height="44" rx="10" fill="#3B3B3B"/><svg id="icon-Plus-5" x="2617.5" y="322" width="20" height="20" viewBox="0 0 24 24" fill="none" stroke="#FFFFFF" stroke-width="2" stroke-linecap="round" stroke-linejoin="round"><path d="M5 12h14"></path><path d="M12 5v14"></path></svg><text id="label-Add-account-4" x="2643.5" y="337.3" font-family="Inter" font-size="15" font-weight="600" fill="#FFFFFF">Add account</text></g><g id="table-2"><rect x="1856" y="378" width="900" height="340" rx="12" fill="#FFFFFF" stroke="#C4C4C4" stroke-width="1"/><rect x="1856" y="378" width="900" height="40" fill="#EFEFEF"/><text id="text-NAME-2" x="1872" y="403" font-family="Inter" font-size="11" font-weight="600" fill="#5C5C5C" text-anchor="start">NAME</text><text id="text-USERNAME-2" x="2128" y="403" font-family="Inter" font-size="11" font-weight="600" fill="#5C5C5C" text-anchor="start">USERNAME</text><text id="text-ROLE-2" x="2344" y="403" font-family="Inter" font-size="11" font-weight="600" fill="#5C5C5C" text-anchor="start">ROLE</text><text id="text-DOCTOR-2" x="2500" y="403" font-family="Inter" font-size="11" font-weight="600" fill="#5C5C5C" text-anchor="start">DOCTOR</text><line x1="1856" y1="418" x2="2756" y2="418" stroke="#E0E0E0" stroke-width="1"/><text id="text-Hospital-Admin-5" font-family="Inter" font-size="14" font-weight="600" fill="#1F1F1F" text-anchor="start"><tspan x="1872" y="446.3">Hospital Admin</tspan></text><text id="text-admin-4" font-family="Inter" font-size="14" font-weight="400" fill="#5C5C5C" text-anchor="start"><tspan x="2128" y="446.3">admin</tspan></text><g id="chip-Admin-10"><rect x="2344" y="432" width="55.1" height="22" rx="11" fill="#E2E2E2"/><text id="chip-Admin-9" x="2353" y="447" font-family="Inter" font-size="12" font-weight="500" fill="#1F1F1F">Admin</text></g><text id="text-7" font-family="Inter" font-size="14" font-weight="400" fill="#5C5C5C" text-anchor="start"><tspan x="2500" y="446.3"></tspan></text><line x1="1856" y1="468" x2="2756" y2="468" stroke="#E0E0E0" stroke-width="1"/><text id="text-Front-Desk-4" font-family="Inter" font-size="14" font-weight="600" fill="#1F1F1F" text-anchor="start"><tspan x="1872" y="496.3">Front Desk</tspan></text><text id="text-frontdesk-4" font-family="Inter" font-size="14" font-weight="400" fill="#5C5C5C" text-anchor="start"><tspan x="2128" y="496.3">frontdesk</tspan></text><g id="chip-Front-desk-8"><rect x="2344" y="482" width="81.6" height="22" rx="11" fill="#E2E2E2"/><text id="chip-Front-desk-7" x="2353" y="497" font-family="Inter" font-size="12" font-weight="500" fill="#1F1F1F">Front desk</text></g><text id="text-9" font-family="Inter" font-size="14" font-weight="400" fill="#5C5C5C" text-anchor="start"><tspan x="2500" y="496.3"></tspan></text><line x1="1856" y1="518" x2="2756" y2="518" stroke="#E0E0E0" stroke-width="1"/><text id="text-Dr-Mahmudul-Hasan-7" font-family="Inter" font-size="14" font-weight="600" fill="#1F1F1F" text-anchor="start"><tspan x="1872" y="546.4">Dr. Mahmudul Hasan</tspan></text><text id="text-drmahmudul-4" font-family="Inter" font-size="14" font-weight="400" fill="#5C5C5C" text-anchor="start"><tspan x="2128" y="546.4">dr.mahmudul</tspan></text><g id="chip-Doctor-20"><rect x="2344" y="532" width="57.1" height="22" rx="11" fill="#E2E2E2"/><text id="chip-Doctor-19" x="2353" y="547" font-family="Inter" font-size="12" font-weight="500" fill="#1F1F1F">Doctor</text></g><text id="text-Dr-Mahmudul-Hasan-8" font-family="Inter" font-size="14" font-weight="400" fill="#5C5C5C" text-anchor="start"><tspan x="2500" y="546.4">Dr. Mahmudul Hasan</tspan></text><line x1="1856" y1="568" x2="2756" y2="568" stroke="#E0E0E0" stroke-width="1"/><text id="text-Dr-Sharmin-Akter-7" font-family="Inter" font-size="14" font-weight="600" fill="#1F1F1F" text-anchor="start"><tspan x="1872" y="596.4">Dr. Sharmin Akter</tspan></text><text id="text-drsharmin-4" font-family="Inter" font-size="14" font-weight="400" fill="#5C5C5C" text-anchor="start"><tspan x="2128" y="596.4">dr.sharmin</tspan></text><g id="chip-Doctor-24"><rect x="2344" y="582" width="57.1" height="22" rx="11" fill="#E2E2E2"/><text id="chip-Doctor-23" x="2353" y="597" font-family="Inter" font-size="12" font-weight="500" fill="#1F1F1F">Doctor</text></g><text id="text-Dr-Sharmin-Akter-8" font-family="Inter" font-size="14" font-weight="400" fill="#5C5C5C" text-anchor="start"><tspan x="2500" y="596.4">Dr. Sharmin Akter</tspan></text><line x1="1856" y1="618" x2="2756" y2="618" stroke="#E0E0E0" stroke-width="1"/><text id="text-Dr-Tanvir-Hasan-7" font-family="Inter" font-size="14" font-weight="600" fill="#1F1F1F" text-anchor="start"><tspan x="1872" y="646.4">Dr. Tanvir Hasan</tspan></text><text id="text-drtanvir-4" font-family="Inter" font-size="14" font-weight="400" fill="#5C5C5C" text-anchor="start"><tspan x="2128" y="646.4">dr.tanvir</tspan></text><g id="chip-Doctor-28"><rect x="2344" y="632" width="57.1" height="22" rx="11" fill="#E2E2E2"/><text id="chip-Doctor-27" x="2353" y="647" font-family="Inter" font-size="12" font-weight="500" fill="#1F1F1F">Doctor</text></g><text id="text-Dr-Tanvir-Hasan-8" font-family="Inter" font-size="14" font-weight="400" fill="#5C5C5C" text-anchor="start"><tspan x="2500" y="646.4">Dr. Tanvir Hasan</tspan></text><line x1="1856" y1="668" x2="2756" y2="668" stroke="#E0E0E0" stroke-width="1"/><text id="text-Dr-Rezaul-Karim-7" font-family="Inter" font-size="14" font-weight="600" fill="#1F1F1F" text-anchor="start"><tspan x="1872" y="696.4">Dr. Rezaul Karim</tspan></text><text id="text-drrezaul-4" font-family="Inter" font-size="14" font-weight="400" fill="#5C5C5C" text-anchor="start"><tspan x="2128" y="696.4">dr.rezaul</tspan></text><g id="chip-Doctor-32"><rect x="2344" y="682" width="57.1" height="22" rx="11" fill="#E2E2E2"/><text id="chip-Doctor-31" x="2353" y="697" font-family="Inter" font-size="12" font-weight="500" fill="#1F1F1F">Doctor</text></g><text id="text-Dr-Rezaul-Karim-8" font-family="Inter" font-size="14" font-weight="400" fill="#5C5C5C" text-anchor="start"><tspan x="2500" y="696.4">Dr. Rezaul Karim</tspan></text></g><g id="top-bar-2"><rect x="1584" y="214" width="1440" height="64" fill="#FFFFFF"/><line x1="1584" y1="278" x2="3024" y2="278" stroke="#E0E0E0" stroke-width="1"/><rect x="1600" y="228" width="36" height="36" rx="8" fill="#3B3B3B"/><svg id="icon-Plus-6" x="1608" y="236" width="20" height="20" viewBox="0 0 24 24" fill="none" stroke="#FFFFFF" stroke-width="3" stroke-linecap="round" stroke-linejoin="round"><path d="M5 12h14"></path><path d="M12 5v14"></path></svg><text id="text-Lumina-Specialized-Hospi-2" x="1648" y="244" font-family="Inter" font-size="16" font-weight="600" fill="#1F1F1F" text-anchor="start">Lumina Specialized Hospital</text><text id="text-Staff-portal-2" x="1648" y="262" font-family="Inter" font-size="12" font-weight="400" fill="#5C5C5C" text-anchor="start">Staff portal</text><text id="text-Sign-out-2" x="2943.6" y="251" font-family="Inter" font-size="14" font-weight="500" fill="#5C5C5C" text-anchor="start">Sign out</text><svg id="icon-LogOut-2" x="2919.6" y="237" width="18" height="18" viewBox="0 0 24 24" fill="none" stroke="#5C5C5C" stroke-width="2" stroke-linecap="round" stroke-linejoin="round"><path d="m16 17 5-5-5-5"></path><path d="M21 12H9"></path><path d="M9 21H5a2 2 0 0 1-2-2V5a2 2 0 0 1 2-2h4"></path></svg><text id="text-10" x="2858.4" y="251" font-family="Hind Siliguri" font-size="14" font-weight="500" fill="#5C5C5C" text-anchor="start">বাংলা</text><svg id="icon-Languages-2" x="2834.4" y="237" width="18" height="18" viewBox="0 0 24 24" fill="none" stroke="#5C5C5C" stroke-width="2" stroke-linecap="round" stroke-linejoin="round"><path d="m5 8 6 6"></path><path d="m4 14 6-6 2-3"></path><path d="M2 5h12"></path><path d="M7 2h1"></path><path d="m22 22-5-10-5 10"></path><path d="M14 18h6"></path></svg><g id="chip-Admin-12"><rect x="2755.3" y="235" width="55.1" height="22" rx="11" fill="#E2E2E2"/><text id="chip-Admin-11" x="2764.3" y="250" font-family="Inter" font-size="12" font-weight="500" fill="#1F1F1F">Admin</text></g><text id="text-Hospital-Admin-6" x="2643.7" y="251" font-family="Inter" font-size="14" font-weight="500" fill="#1F1F1F" text-anchor="start">Hospital Admin</text></g><g id="dialog"><rect x="1584" y="214" width="1440" height="900" fill="#000000" fill-opacity="0.4"/><rect x="2074" y="294" width="460" height="557.4" rx="16" fill="#FFFFFF"/><text id="text-Add-account-4" font-family="Inter" font-size="18" font-weight="700" fill="#1F1F1F" text-anchor="start"><tspan x="2098" y="336.4">Add account</tspan></text><svg id="icon-X-4" x="2490" y="321.1" width="20" height="20" viewBox="0 0 24 24" fill="none" stroke="#5C5C5C" stroke-width="2" stroke-linecap="round" stroke-linejoin="round"><path d="M18 6 6 18"></path><path d="m6 6 12 12"></path></svg><text id="text-Name-2" font-family="Inter" font-size="13" font-weight="600" fill="#1F1F1F" text-anchor="start"><tspan x="2098" y="371.4">Name</tspan></text><g id="input-Dr-Tanvir-Hasan-3"><rect x="2098" y="383" width="412" height="44" rx="8" fill="#FFFFFF" stroke="#C4C4C4" stroke-width="1"/><text id="value-Dr-Tanvir-Hasan-3" x="2110" y="410" font-family="Inter" font-size="14" fill="#1F1F1F">Dr. Tanvir Hasan</text></g><text id="text-Username-2" font-family="Inter" font-size="13" font-weight="600" fill="#1F1F1F" text-anchor="start"><tspan x="2098" y="454.3">Username</tspan></text><g id="input-drtanvir-2"><rect x="2098" y="465.8" width="412" height="44" rx="8" fill="#FFFFFF" stroke="#C4C4C4" stroke-width="1"/><text id="value-drtanvir-2" x="2110" y="492.8" font-family="Inter" font-size="14" fill="#1F1F1F">dr.tanvir</text></g><text id="text-Password-2" font-family="Inter" font-size="13" font-weight="600" fill="#1F1F1F" text-anchor="start"><tspan x="2098" y="537.1">Password</tspan></text><g id="input-2"><rect x="2098" y="548.7" width="412" height="44" rx="8" fill="#FFFFFF" stroke="#C4C4C4" stroke-width="1"/><text id="value-2" x="2110" y="575.7" font-family="Inter" font-size="14" fill="#1F1F1F">••••••••••</text></g><text id="text-Role-2" font-family="Inter" font-size="13" font-weight="600" fill="#1F1F1F" text-anchor="start"><tspan x="2098" y="620">Role</tspan></text><g id="input-Doctor-2"><rect x="2098" y="631.5" width="412" height="44" rx="8" fill="#FFFFFF" stroke="#C4C4C4" stroke-width="1"/><text id="value-Doctor-2" x="2110" y="658.5" font-family="Inter" font-size="14" fill="#1F1F1F">Doctor</text><svg id="icon-ChevronDown-3" x="2480" y="644.5" width="18" height="18" viewBox="0 0 24 24" fill="none" stroke="#5C5C5C" stroke-width="2" stroke-linecap="round" stroke-linejoin="round"><path d="m6 9 6 6 6-6"></path></svg></g><text id="text-Doctor-2" font-family="Inter" font-size="13" font-weight="600" fill="#1F1F1F" text-anchor="start"><tspan x="2098" y="702.8">Doctor</tspan></text><g id="input-Dr-Tanvir-Hasan-4"><rect x="2098" y="714.4" width="412" height="44" rx="8" fill="#FFFFFF" stroke="#C4C4C4" stroke-width="1"/><text id="value-Dr-Tanvir-Hasan-4" x="2110" y="741.4" font-family="Inter" font-size="14" fill="#1F1F1F">Dr. Tanvir Hasan</text><svg id="icon-ChevronDown-4" x="2480" y="727.4" width="18" height="18" viewBox="0 0 24 24" fill="none" stroke="#5C5C5C" stroke-width="2" stroke-linecap="round" stroke-linejoin="round"><path d="m6 9 6 6 6-6"></path></svg></g><line x1="2098" y1="772.9" x2="2510" y2="772.9" stroke="#E0E0E0" stroke-width="1"/><g id="button-Cancel-4"><rect x="2349.7" y="787.4" width="81.6" height="40" rx="10" fill="#FFFFFF" stroke="#3B3B3B" stroke-width="1.5"/><text id="label-Cancel-4" x="2365.7" y="812.3" font-family="Inter" font-size="14" font-weight="600" fill="#1F1F1F">Cancel</text></g><g id="button-Save-4"><rect x="2441.3" y="787.4" width="68.7" height="40" rx="10" fill="#3B3B3B"/><text id="label-Save-4" x="2457.3" y="812.3" font-family="Inter" font-size="14" font-weight="600" fill="#FFFFFF">Save</text></g></g></g><g id="notes"><text id="text-Notes" x="3104" y="194" font-family="Inter" font-size="16" font-weight="600" fill="#5C5C5C" text-anchor="start">Notes</text><g id="note-1-3"><circle cx="3115" cy="225" r="11" fill="#2563EB" stroke="#FFFFFF" stroke-width="2"/><text x="3115" y="229.2" font-family="Inter" font-size="12" font-weight="700" fill="#FFFFFF" text-anchor="middle">1</text></g><text id="text-Add-an-admin-front-desk" font-family="Inter" font-size="15" font-weight="400" fill="#1F1F1F" text-anchor="start"><tspan x="3138" y="229.8">Add an admin, front-desk or doctor account.</tspan></text><g id="note-2-3"><circle cx="3115" cy="267" r="11" fill="#2563EB" stroke="#FFFFFF" stroke-width="2"/><text x="3115" y="271.2" font-family="Inter" font-size="12" font-weight="700" fill="#FFFFFF" text-anchor="middle">2</text></g><text id="text-Three-roles-admin-ever" font-family="Inter" font-size="15" font-weight="400" fill="#1F1F1F" text-anchor="start"><tspan x="3138" y="271.8">Three roles: admin (everything), front desk (the front</tspan><tspan x="3138" y="294.3">desk only), doctor (their own patients only).</tspan></text><g id="note-3-3"><circle cx="3115" cy="330" r="11" fill="#2563EB" stroke="#FFFFFF" stroke-width="2"/><text x="3115" y="334.2" font-family="Inter" font-size="12" font-weight="700" fill="#FFFFFF" text-anchor="middle">3</text></g><text id="text-A-doctor-account-is-link" font-family="Inter" font-size="15" font-weight="400" fill="#1F1F1F" text-anchor="start"><tspan x="3138" y="334.8">A doctor account is linked to one doctor profile, so</tspan><tspan x="3138" y="357.3">the doctor sees only their own list.</tspan></text></g><g id="note-markers"><g id="note-1-2"><circle cx="1240" cy="312" r="11" fill="#2563EB" stroke="#FFFFFF" stroke-width="2"/><text x="1240" y="316.2" font-family="Inter" font-size="12" font-weight="700" fill="#FFFFFF" text-anchor="middle">1</text></g><g id="note-2-2"><circle cx="2514" cy="608.7" r="11" fill="#2563EB" stroke="#FFFFFF" stroke-width="2"/><text x="2514" y="612.9" font-family="Inter" font-size="12" font-weight="700" fill="#FFFFFF" text-anchor="middle">2</text></g><g id="note-3-2"><circle cx="2514" cy="691.5" r="11" fill="#2563EB" stroke="#FFFFFF" stroke-width="2"/><text x="2514" y="695.7" font-family="Inter" font-size="12" font-weight="700" fill="#FFFFFF" text-anchor="middle">3</text></g></g></g></svg>